<?xml version="1.0" encoding="UTF-8" standalone="no"?><!DOCTYPE svg PUBLIC "-//W3C//DTD SVG 1.1//EN" "http://www.w3.org/Graphics/SVG/1.1/DTD/svg11.dtd"><svg width="100%" height="100%" viewBox="0 0 134 134" version="1.1" xmlns="http://www.w3.org/2000/svg" xmlns:xlink="http://www.w3.org/1999/xlink" xml:space="preserve" xmlns:affinity="https://www.affinity.studio/" style="fill-rule:evenodd;clip-rule:evenodd;stroke-linecap:round;stroke-linejoin:round;"><path d="M100,0c18.397,0 33.333,14.936 33.333,33.333l0,66.667c0,18.397 -14.936,33.333 -33.333,33.333l-66.667,0c-18.397,0 -33.333,-14.936 -33.333,-33.333l0,-66.667c0,-18.397 14.936,-33.333 33.333,-33.333l66.667,0Z" style="fill:#18181b;"/><g><path d="M62.5,107.208c2.575,1.487 5.758,1.487 8.333,0l29.167,-16.667c2.573,-1.485 4.164,-4.238 4.167,-7.208l0,-33.333c-0.003,-2.97 -1.594,-5.723 -4.167,-7.208l-29.167,-16.667c-2.575,-1.487 -5.758,-1.487 -8.333,0l-29.167,16.667c-2.573,1.485 -4.164,4.238 -4.167,7.208l-0,33.333c0.003,2.97 1.594,5.723 4.167,7.208l29.167,16.667Z" style="fill:none;fill-rule:nonzero;stroke:#fff;stroke-width:8.33px;"/><path d="M66.667,108.333l0,-41.667" style="fill:none;fill-rule:nonzero;stroke:#fff;stroke-width:8.33px;"/><path d="M30.417,45.833l36.25,20.833l36.25,-20.833" style="fill:none;fill-rule:nonzero;stroke:#fff;stroke-width:8.33px;"/><path d="M66.667,107.301l0,-40.635" style="fill:none;fill-rule:nonzero;stroke:#fff;stroke-width:7.57px;"/><path d="M47.917,34.458l37.5,21.458" style="fill:none;fill-rule:nonzero;stroke:#fff;stroke-width:8.33px;"/></g></svg>